<svg xmlns="http://www.w3.org/2000/svg" xmlns:xlink="http://www.w3.org/1999/xlink" width="500" zoomAndPan="magnify" viewBox="0 0 375 374.999991" height="500" preserveAspectRatio="xMidYMid meet" version="1.0"><defs><clipPath id="7f44a7d1aa"><path d="M 187 92 L 291 92 L 291 244 L 187 244 Z M 187 92 " clip-rule="nonzero"/></clipPath><clipPath id="95ad735284"><path d="M 37.5 189.855469 L 191.296875 36.058594 L 338.726562 183.492188 L 184.933594 337.285156 Z M 37.5 189.855469 " clip-rule="nonzero"/></clipPath><clipPath id="22f76c58dc"><path d="M 37.5 189.855469 L 191.296875 36.058594 L 338.726562 183.492188 L 184.933594 337.285156 Z M 37.5 189.855469 " clip-rule="nonzero"/></clipPath><clipPath id="3a60e1bcb9"><path d="M 37.5 189.855469 L 191.296875 36.058594 L 338.726562 183.492188 L 184.933594 337.285156 Z M 37.5 189.855469 " clip-rule="nonzero"/></clipPath><clipPath id="49f8bf1228"><path d="M 37 140 L 225 140 L 225 279 L 37 279 Z M 37 140 " clip-rule="nonzero"/></clipPath><clipPath id="85bf3628b4"><path d="M 37.5 189.855469 L 191.296875 36.058594 L 338.726562 183.492188 L 184.933594 337.285156 Z M 37.5 189.855469 " clip-rule="nonzero"/></clipPath><clipPath id="fa14bdc71b"><path d="M 37.5 189.855469 L 191.296875 36.058594 L 338.726562 183.492188 L 184.933594 337.285156 Z M 37.5 189.855469 " clip-rule="nonzero"/></clipPath><clipPath id="bc6add2283"><path d="M 37.5 189.855469 L 191.296875 36.058594 L 338.726562 183.492188 L 184.933594 337.285156 Z M 37.5 189.855469 " clip-rule="nonzero"/></clipPath></defs><g clip-path="url(#7f44a7d1aa)"><g clip-path="url(#95ad735284)"><g clip-path="url(#22f76c58dc)"><g clip-path="url(#3a60e1bcb9)"><path fill="#80cc28" d="M 289.816406 179.566406 C 282.628906 127.546875 195.578125 92.996094 195.578125 92.996094 C 195.578125 92.996094 205.589844 139.507812 193.472656 167.421875 C 185.367188 186.066406 174.957031 245.746094 246.085938 243.800781 C 246.84375 243.78125 247.628906 243.742188 248.421875 243.679688 C 257.039062 216.945312 265.632812 157.34375 201.164062 99.734375 C 201.164062 99.734375 282.867188 157.070312 252.644531 243.207031 C 271.765625 240.3125 296.242188 226.027344 289.816406 179.566406 " fill-opacity="1" fill-rule="nonzero"/></g></g></g></g><g clip-path="url(#49f8bf1228)"><g clip-path="url(#85bf3628b4)"><g clip-path="url(#fa14bdc71b)"><g clip-path="url(#bc6add2283)"><path fill="#27963c" d="M 179.691406 192.773438 C 148.472656 178.820312 105.425781 172.078125 48.636719 188.347656 C 48.636719 188.347656 116.691406 159.910156 180.875 186.472656 C 181.949219 181.769531 183.3125 177.699219 184.617188 174.691406 C 188.367188 166.058594 189.992188 155.652344 190.460938 145.386719 C 129.613281 122.863281 37.601562 189.792969 37.601562 189.792969 C 37.601562 189.792969 94.328125 210.441406 116.03125 242.28125 C 129.59375 262.191406 180.355469 308.539062 224.792969 250.738281 C 181.445312 246.929688 176.332031 215.46875 179.691406 192.773438 " fill-opacity="1" fill-rule="nonzero"/></g></g></g></g></svg>